<?xml version="1.0" encoding="UTF-8"?>
<svg id="Layer_1" data-name="Layer 1" xmlns="http://www.w3.org/2000/svg" version="1.1" viewBox="0 0 24 24">
  <defs>
    <style>
      .cls-1 {
        fill: none;
      }

      .cls-1, .cls-2, .cls-3, .cls-4 {
        stroke-width: 0px;
      }

      .cls-2 {
        fill: #e3e3e3;
      }

      .cls-3 {
        fill: #8ab4f7;
      }

      .cls-5 {
        display: none;
      }

      .cls-4 {
        fill: #f0f;
      }
    </style>
  </defs>
  <path class="cls-2" d="M19,21l-7-3-7,3V4.4c0-.8.6-1.4,1.4-1.4h11.2c.8,0,1.4.6,1.4,1.4v16.6Z"/>
  <g class="cls-5">
    <polygon class="cls-1" points="9.7 14.5 7.3 13.5 7.3 13.5 16.7 17.5 16.7 5.3 7.3 5.3 7.3 12 9.7 13 9.7 14.5"/>
    <polygon class="cls-1" points="7.3 17.5 7.4 17.5 7.3 17.4 7.3 17.5"/>
    <path class="cls-4" d="M17,3H7c-1.1,0-2,.9-2,2v6l2.3,1v-6.7h9.3v12.1l-9.3-4h0s-2.3-1-2.3-1v8.5l5.3-2.3-3-1.3h0s0,0,0,0h0v-1.4h0l11.7,5V5c0-1.1-.9-2-2-2Z"/>
  </g>
  <g>
    <polygon class="cls-3" points="9 19.3 11 18.4 11 14.6 9 12.2 9 19.3"/>
    <polygon class="cls-3" points="11 3 9 3 11 5.4 11 3"/>
    <polygon class="cls-3" points="13 18.4 15 19.3 13 16.9 13 18.4"/>
    <polygon class="cls-3" points="15 3 13 3 13 7.8 15 10.1 15 3"/>
    <path class="cls-3" d="M17.6,3h-.6v12.6L6.4,3c-.8,0-1.4.6-1.4,1.4h0v16.6l2-.9V6.8l12,14.2V4.4c0-.8-.6-1.4-1.4-1.4Z"/>
  </g>
</svg>