<?xml version="1.0" encoding="UTF-8"?>
<svg id="Layer_1" data-name="Layer 1" xmlns="http://www.w3.org/2000/svg" version="1.1" viewBox="0 0 24 24">
  <defs>
    <style>
      .cls-1 {
        fill: #e3e3e3;
        stroke-width: 0px;
      }
    </style>
  </defs>
  <path class="cls-1" d="M19.5,20.6l-6.3-6.3c-.5.4-1.1.7-1.7,1-.6.2-1.3.4-2,.4-1.7,0-3.2-.6-4.3-1.8-1.2-1.2-1.8-2.6-1.8-4.3s.6-3.2,1.8-4.3c1.2-1.2,2.6-1.8,4.3-1.8s3.2.6,4.3,1.8c1.2,1.2,1.8,2.6,1.8,4.3s-.1,1.4-.4,2c-.2.7-.6,1.2-1,1.7l6.3,6.3-1.1,1.1h.1ZM9.5,14.1c1.3,0,2.4-.4,3.3-1.3s1.3-2,1.3-3.3-.4-2.4-1.3-3.3c-.9-.9-2-1.3-3.3-1.3s-2.4.4-3.3,1.3-1.3,2-1.3,3.3.4,2.4,1.3,3.3c.9.9,2,1.3,3.3,1.3Z"/>
</svg>